<svg width="50" height="188" viewBox="0 0 50 188" fill="none" xmlns="http://www.w3.org/2000/svg">
<path d="M31.3195 66.7095L25.049 25.2212L30.5815 24.6471C36.3647 24.048 41.7481 27.301 43.674 32.5602C47.156 36.8375 49.1916 41.8578 49.2828 47.8768C51.5344 54.0253 48.1667 60.8392 41.7759 63.066L31.3195 66.7095Z" fill="#376443"/>
<path d="M32.0313 177.639L27.8182 177.735L25.4698 159.598L31.6873 159.457L32.0313 177.639Z" fill="#A0616A"/>
<path d="M17.5767 186.062C17.5767 186.744 18.0818 187.296 18.7049 187.296H27.0675C27.0675 187.296 27.8905 184.127 31.2458 182.763L31.4774 187.296H35.7914L35.2687 180.006C35.2687 180.006 36.4227 176.106 34.0261 174.112C31.6294 172.118 33.5706 172.396 33.5706 172.396L32.6278 167.884L26.1089 168.618L26.0609 175.701L22.8973 182.732L18.2571 184.928C17.8441 185.124 17.5767 185.569 17.5767 186.062Z" fill="#2F2E41"/>
<path d="M16.6388 177.502L12.4257 177.597L10.0773 159.46L16.2947 159.32L16.6388 177.502Z" fill="#A0616A"/>
<path d="M2.18417 185.924C2.18417 186.606 2.68925 187.159 3.31232 187.159H11.675C11.675 187.159 12.4979 183.989 15.8532 182.625L16.0848 187.159H20.3988L19.8762 179.869C19.8762 179.869 21.0302 175.968 18.6335 173.975C16.2368 171.981 18.178 172.258 18.178 172.258L17.2352 167.746L10.7163 168.481L10.6684 175.564L7.50479 182.594L2.86458 184.791C2.45158 184.986 2.18417 185.432 2.18417 185.924Z" fill="#2F2E41"/>
<path d="M28.7688 22.7455L13.5961 25.2739C12.5508 22.7104 7.49098 15.6364 7.05756 13.1266C5.93073 6.60129 11.0081 0.585388 17.8915 0.0931775C24.4935 -0.378913 28.5156 0.805775 29.0774 6.83136C29.2744 8.94338 32.1448 10.8491 32.7228 12.8959C35.912 24.1881 29.5315 20.3392 28.7688 22.7455Z" fill="#2F2E41"/>
<path d="M5.98864 70.0415L4.99911 84.5799L9.2479 165.585L17.0794 164.178L22.3637 98.1701L24.2947 165.331L33.5303 165.647L40.0209 86.7754C40.5168 80.7491 38.8684 74.7395 35.3444 69.7255L5.98864 70.0415Z" fill="#2F2E41"/>
<path d="M25.1194 23.266H13.014L10.2766 27.3747L0.711212 31.1673L5.98866 67.1971L4.66929 82.6836C12.1265 85.1081 29.4324 88.8608 41.9496 78.9565L30.7266 59.6119L33.3653 32.4315L28.2528 27.9744L25.1194 23.266Z" fill="#6C63FF"/>
<path d="M18.4222 21.2229C23.4734 21.2229 27.5682 17.2993 27.5682 12.4592C27.5682 7.61918 23.4734 3.69555 18.4222 3.69555C13.371 3.69555 9.27612 7.61918 9.27612 12.4592C9.27612 17.2993 13.371 21.2229 18.4222 21.2229Z" fill="#A0616A"/>
<path d="M41.0001 91.0902C40.8035 90.1389 40.8475 89.224 41.0801 88.4728L38.61 79.5237L43.0886 78.522L45.112 87.7079C45.6257 88.3174 46.0302 89.1473 46.2268 90.0986C46.6759 92.2719 45.8699 94.2556 44.4266 94.5295C42.9833 94.8033 41.4492 93.2635 41.0001 91.0902Z" fill="#A0616A"/>
<path d="M27.2633 30.3772C27.2633 30.3772 32.8706 28.1648 35.5093 32.2735C38.148 36.3821 45.0746 84.7379 45.0746 84.7379L39.3025 85.5281L27.923 46.4958L27.2633 30.3772Z" fill="#6C63FF"/>
<path d="M31.2739 58.1829L26.5916 26.7256L30.5801 29.7823L31.2739 58.1829Z" fill="#3F3D56"/>
<path d="M28.8104 38.193C28.0614 38.9311 27.2006 39.446 26.3754 39.7041L19.7039 47.1676L16.0904 44.0219L23.247 36.7896C23.4931 35.992 24.006 35.1529 24.7549 34.4148C26.466 32.7285 28.7609 32.2073 29.8808 33.2507C31.0006 34.294 30.5214 36.5067 28.8104 38.193Z" fill="#A0616A"/>
<path d="M6.82469 28.9966C6.82469 28.9966 0.524225 29.6873 0.0460022 32.2011C-0.432221 34.7149 2.97824 58.0596 2.97824 58.0596L7.71751 62.873L26.2332 41.7386L20.6642 38.3871L12.1057 44.831L6.82469 28.9966Z" fill="#6C63FF"/>
<path d="M17.3011 1.48797C13.5808 2.11523 9.97571 4.04526 8.04565 7.15661C6.1156 10.268 2.57922 14.6031 5.14308 17.2612C6.02922 18.1799 7.15819 18.8753 7.95533 19.8661C9.3118 21.5521 9.5077 23.9209 8.83128 25.9486C8.15486 27.9764 6.70423 29.6958 5.04463 31.1111C8.59705 30.7599 11.8391 28.3416 13.0659 25.1279C13.6336 23.6407 13.7491 21.8569 12.7777 20.5758C12.2668 19.9021 11.5143 19.4415 10.8654 18.8875C9.1917 17.4586 10.2666 15.3003 10.2766 13.1524C10.2865 11.0045 10.5687 9.51013 12.2556 8.09556C13.4173 8.98521 17.2695 8.77043 18.7375 8.54219C20.2055 8.31396 24.3108 13.7163 25.1194 12.5203C26.7022 14.4698 25.6192 10.4525 25.322 12.906C25.1095 14.6613 23.9066 16.1754 23.544 17.9079C23.2284 19.4156 23.5733 20.9845 24.1276 22.4275C25.3781 25.6827 27.7224 28.5427 30.7266 30.478C28.9921 28.1273 27.1837 25.5585 27.2408 22.6801C27.2831 20.5451 32.0303 12.3866 32.6951 10.3485C33.9672 6.44857 30.4663 5.87886 27.7581 2.72269C25.3798 -0.0490524 20.7823 0.807436 17.1367 1.62803" fill="#2F2E41"/>
</svg>
